<?xml version="1.0" encoding="utf-8"?>
<!-- Generator: Adobe Illustrator 22.0.1, SVG Export Plug-In . SVG Version: 6.00 Build 0)  -->
<svg version="1.1" id="Layer_1" xmlns="http://www.w3.org/2000/svg" xmlns:xlink="http://www.w3.org/1999/xlink" x="0px" y="0px"
	 viewBox="0 0 2500 2500" style="enable-background:new 0 0 2500 2500;" xml:space="preserve">
<style type="text/css">
	.st0{fill:#53C1DE;}
</style>
<path class="st0" d="M2049.7,860.4L2049.7,860.4c-26.4-9.1-53.1-17.5-79.9-25.3c4.5-18.1,8.6-36.4,12.3-54.7
	c60.5-294.5,20.9-531.7-114.1-609.8c-129.5-74.9-341.2,3.2-555.1,189.9c-21.1,18.4-41.7,37.4-61.8,56.9
	c-13.5-13-27.2-25.7-41.1-38.1C985.9,179.8,761.2,95.7,626.3,174C497,249.1,458.7,472.1,513.1,751.2c5.4,27.6,11.5,55.1,18.3,82.5
	c-31.8,9.1-62.5,18.7-91.9,29C176.8,954.5,9,1098.5,9,1247.9c0,154.3,180.1,309,453.9,402.9c22.2,7.6,44.6,14.6,67.1,21
	c-7.3,29.4-13.8,59.1-19.5,88.9c-51.9,274.2-11.4,491.9,117.6,566.6c133.3,77.1,356.9-2.1,574.7-193.1
	c17.2-15.1,34.5-31.1,51.8-47.9c21.8,21.1,44.2,41.6,67.1,61.4c210.9,182.1,419.3,255.6,548.2,180.7
	c133.1-77.3,176.4-311.2,120.2-595.8c-4.3-21.7-9.3-43.9-14.9-66.5c15.7-4.6,31.1-9.5,46.2-14.5c284.5-94.5,469.7-247.4,469.7-403.8
	C2491,1098,2317.8,953,2049.7,860.4z M1382.6,440.9c183.2-159.9,354.5-223.1,432.5-178h0c83.1,48.1,115.4,241.9,63.2,496.2
	c-3.4,16.6-7.1,33.1-11.2,49.5c-103-23.8-214.8-41.6-331.9-52.6c-68.2-97.4-138.9-186-209.8-262.6
	C1344.1,475.4,1363.1,457.9,1382.6,440.9z M741.8,1375.5c22.4,43.5,45.9,86.4,70.4,128.8c25,43.2,50.9,85.9,77.9,127.8
	c-81.3-9.1-157.9-21.4-228.7-36.9C683.3,1524.3,710.3,1450.5,741.8,1375.5z M741.7,1125.4c-30.9-73.5-57.3-145.7-78.9-215.4
	c70.8-15.9,146.3-28.9,225-38.7c-26.3,41.2-51.7,83-76.1,125.4C787.4,1039,764.1,1081.9,741.7,1125.4z M798.1,1250.5
	c32.7-68.2,67.9-135.1,105.6-200.7v0c37.7-65.6,77.8-129.7,120.3-192.2c73.8-5.6,149.5-8.5,226-8.5c76.8,0,152.6,3,226.4,8.6
	c42.1,62.4,82,126.3,119.6,191.5c37.8,65.4,73.5,132,107,199.7c-33.2,68.4-68.7,135.6-106.6,201.5l0,0
	c-37.6,65.5-77.3,129.8-119.1,192.7c-73.6,5.3-149.7,8-227.3,8c-77.2,0-152.4-2.4-224.7-7.1c-42.8-62.8-83.3-127.1-121.3-193
	C866.2,1385.5,830.8,1318.6,798.1,1250.5z M1688.2,1503.6c25-43.4,49-87.4,72-131.9h0c33.2,75.8,61.1,149.2,83.3,219
	c-72,16.5-149.7,29.7-231.5,39.6C1638.2,1588.5,1663.7,1546.3,1688.2,1503.6z M1759.2,1125.5c-22.9-43.7-46.7-86.8-71.4-129.5v0
	c-24.3-42-49.4-83.5-75.5-124.5c79.2,10,155.1,23.4,226.3,39.7C1817.2,979.9,1790.6,1051.8,1759.2,1125.5z M1251.2,569.4
	L1251.2,569.4c48.9,53.1,97.9,112.5,146.1,176.8c-97.7-4.6-195.6-4.7-293.4-0.1C1152.1,682.4,1201.5,623.2,1251.2,569.4z
	 M679.4,266.1c83-48.2,266.6,20.5,460.2,192.9c12.4,11,24.8,22.6,37.2,34.5c-72.1,77.7-143.4,166.1-211.4,262.4
	c-116.7,10.9-228.5,28.3-331.2,51.6c-6.3-25.4-12-51-17.1-76.7v0C570.5,491.7,601.5,311.3,679.4,266.1z M558.4,1569.4
	c-20.6-5.9-41-12.3-61.3-19.2c-121-41.5-221-95.4-289.5-154.2c-61.6-52.9-92.6-105.4-92.6-148c0-90.6,134.7-206.3,359.5-284.8
	c28.2-9.8,56.7-18.8,85.4-27c31.1,101.3,71.8,207.3,121,314.4C631.1,1359.2,589.8,1466.8,558.4,1569.4z M1133,2054.1
	c-96.3,84.4-192.8,144.3-277.8,174.5l0,0c-76.4,27.1-137.3,27.8-174.1,6.6c-78.3-45.3-110.8-220.1-66.4-454.6
	c5.3-27.7,11.3-55.3,18.1-82.7c101.7,22.6,214.2,38.8,334.5,48.6c68.7,96.9,140.6,186,213.1,264
	C1164.9,2025.4,1149.1,2039.9,1133,2054.1z M1254.1,1933.9c-50.3-54.4-100.4-114.5-149.3-179.2c47.5,1.9,96,2.8,145.2,2.8
	c50.6,0,100.6-1.1,149.8-3.3C1351.5,1820,1302.7,1880.3,1254.1,1933.9z M1898,2081.9c-14.8,79.9-44.5,133.2-81.3,154.5
	c-78.2,45.4-245.5-13.6-425.9-169.3c-20.7-17.8-41.5-36.9-62.4-57.1c69.9-76.7,139.8-165.9,208-265c120-10.7,233.4-28.1,336.2-52
	c5.1,20.5,9.6,40.6,13.4,60.2v0C1910.9,1879.1,1914.4,1992.9,1898,2081.9z M1988,1550.7L1988,1550.7c-13.6,4.5-27.5,8.9-41.7,13.1
	c-31.4-99.7-73.8-205.8-125.7-315.4c49.5-107,90.3-211.7,120.8-310.8c25.4,7.4,50,15.1,73.8,23.4
	c229.7,79.3,369.8,196.5,369.8,286.9C2385,1344.1,2233.7,1469.1,1988,1550.7z"/>
<path class="st0" d="M1250,1025.6c122.4,0,221.6,99.5,221.6,222.3c0,122.8-99.2,222.3-221.6,222.3c-122.4,0-221.6-99.5-221.6-222.3
	C1028.4,1125.1,1127.6,1025.6,1250,1025.6"/>
</svg>
